<?xml version="1.0" standalone="no"?><!DOCTYPE svg PUBLIC "-//W3C//DTD SVG 1.1//EN" "http://www.w3.org/Graphics/SVG/1.1/DTD/svg11.dtd"><svg viewBox="0 0 1024 1024" version="1.1" xmlns="http://www.w3.org/2000/svg" xmlns:xlink="http://www.w3.org/1999/xlink" width="100" height="100"><path d="M463.535218 551.822222V472.007111c-0.910222-4.266667-1.706667-94.094222-1.706667-94.094222s1.308444-36.579556 1.308445-76.231111V168.504889c0-48.014222-23.495111-93.639111-63.488-124.928C364.09344 15.303111 317.615218 0 269.088996 0c-48.583111 0-95.004444 15.303111-130.787556 43.52-39.992889 31.288889-63.488 76.913778-63.488 124.928v383.601778A283.249778 283.249778 0 0 0 0.004551 745.130667a281.770667 281.770667 0 0 0 78.961778 197.233777A262.997333 262.997333 0 0 0 269.259662 1024a262.997333 262.997333 0 0 0 190.293334-81.692444 280.177778 280.177778 0 0 0 74.524444-147.114667l1.137778-92.046222-25.6-83.228445c-11.946667-24.746667-27.306667-47.786667-46.08-68.152889z m-61.895111 27.306667l9.671111 9.500444a218.510222 218.510222 0 0 1 65.080889 156.273778 215.722667 215.722667 0 0 1-60.472889 151.893333 202.524444 202.524444 0 0 1-293.774222 0 217.486222 217.486222 0 0 1-60.871112-151.893333c0-59.164444 23.552-115.768889 65.080889-156.273778l9.728-9.443555V168.391111c0-27.192889 13.824-54.101333 38.912-73.955555 24.917333-19.456 58.311111-30.492444 93.866667-30.492445s68.892444 11.036444 93.809778 30.492445c25.088 19.626667 38.968889 46.592 38.968889 73.955555v410.737778z" fill="#1296db"></path><path d="M972.804551 307.2h-307.2a51.2 51.2 0 0 1 0-102.4h307.2a51.2 51.2 0 0 1 0 102.4z m-441.912889 373.134222l4.323556 22.869334a278.755556 278.755556 0 0 0-4.323556-22.869334zM665.604551 409.6h153.6a51.2 51.2 0 0 1 0 102.4h-153.6a51.2 51.2 0 0 1 0-102.4z m0 204.8h51.2a51.2 51.2 0 0 1 0 102.4h-51.2a51.2 51.2 0 0 1 0-102.4zM268.804551 863.687111c-68.152889 0-123.221333-56.832-123.221333-127.260444 0-51.996444 30.208-96.768 73.386666-116.565334V198.826667c0-21.276444 22.300444-38.855111 49.834667-38.855111s49.834667 17.351111 49.834667 38.855111v421.034666a127.146667 127.146667 0 0 1 73.102222 116.565334c0 70.200889-55.068444 127.260444-122.936889 127.260444zM509.615218 619.975111l25.6 83.228445-1.137778 92.046222s6.371556-27.306667 1.137778-92.046222l-4.323556-22.869334a288.369778 288.369778 0 0 0-21.276444-60.359111z" fill="#1296db"></path></svg>